<?xml version="1.0" encoding="UTF-8" standalone="no"?>
<!-- Created with Inkscape (http://www.inkscape.org/) -->

<svg
   width="48"
   height="48"
   viewBox="0 0 48 48"
   version="1.1"
   id="svg1"
   xml:space="preserve"
   xmlns:inkscape="http://www.inkscape.org/namespaces/inkscape"
   xmlns:sodipodi="http://sodipodi.sourceforge.net/DTD/sodipodi-0.dtd"
   xmlns="http://www.w3.org/2000/svg"
   xmlns:svg="http://www.w3.org/2000/svg"><sodipodi:namedview
     id="namedview1"
     pagecolor="#505050"
     bordercolor="#ffffff"
     borderopacity="1"
     inkscape:showpageshadow="0"
     inkscape:pageopacity="0"
     inkscape:pagecheckerboard="1"
     inkscape:deskcolor="#505050"
     inkscape:document-units="px"><inkscape:page
       x="0"
       y="0"
       width="48"
       height="48"
       id="page2"
       margin="0"
       bleed="0" /></sodipodi:namedview><defs
     id="defs1" /><g
     inkscape:label="Layer 1"
     inkscape:groupmode="layer"
     id="layer1"><g
       id="g22"
       transform="matrix(1.3534262,0,0,1.3122639,-17.563366,-8.5427549)"><path
         style="fill:#000000"
         d="m 32.081538,29.724109 c 0.175709,0.01464 0.644267,0.04393 0.644267,0.04393 l -0.02929,0.453915 0.219636,0.131782 0.11714,-0.05857 -0.131782,-0.322133 0.658909,-0.322133 1.434957,-0.468557 0.893187,-1.127467 0.4832,-1.888872 c 0,0 0.05857,-0.204993 -0.04393,-0.204993 -0.102497,0 -0.54177,-0.08786 -0.54177,-0.08786 l 0.175709,-0.219636 0.234279,-0.08786 -1.317818,-1.801017 -0.219636,-0.102497 0.278206,-0.439273 0.527127,-0.395345 -0.102497,-0.234279 -0.732121,-0.117139 -0.263563,0.278206 -0.322134,-0.4832 -0.497842,-0.04393 -0.131782,-0.336776 0.263564,0.07321 0.204994,-0.146424 0.08785,-0.248921 0.42463,-0.409988 0.248922,0.146425 -0.08786,0.30749 -0.01464,0.204994 0.102497,0.07321 -0.01896,0.18771 0.191406,-0.04687 0.433594,-0.433594 0.292969,-0.0039 0.429687,0.171875 0.04687,0.109375 -0.0078,0.453125 0.164062,0.136719 0.152344,0.0625 0.21875,-0.01172 0.199219,0.01172 0.09375,0.238281 -0.03516,0.171875 0.08984,0.15625 0.175781,0.238281 0.02344,0.382813 0.09766,0.3125 c 0,0 0.105469,0.0078 0.121094,0.0078 0.01563,0 0.8125,-0.339844 0.8125,-0.339844 l 0.02734,-0.285156 -0.1875,-0.277344 -0.08984,-0.324218 -0.632813,-0.636719 -0.15625,-0.152344 -0.324218,-0.183594 -0.05859,-0.234375 0.261719,-0.148437 0.08984,-0.148438 0.136719,-0.175781 -0.04687,-0.191406 -0.109375,-0.15625 0.113281,-0.253906 0.08594,-0.02734 -0.05078,-0.15625 0.09766,0.0078 0.06641,-0.269531 0.07813,0.09766 0.08984,-0.08594 0.0625,0.121094 0.390625,0.109375 0.435987,-0.337404 0.342505,-1.414213 0.09944,-0.861787 -0.408796,-0.662912 -0.331457,-0.828641 -0.344707,-0.453637 -0.871094,-0.472656 -0.359375,0.0039 0.0625,0.1875 -0.132813,0.136719 -0.128906,-0.01953 0.07031,-0.167969 -0.242188,-0.07031 0.0039,0.109375 -0.132812,-0.01563 -0.183594,-0.292968 -0.550781,-0.07813 0.152344,-0.324219 0.378906,-0.949219 c 0,0 0.07964,-0.592918 0.184602,-0.592918 0.104962,0 1.690428,-0.03315 1.690428,-0.03315 l 0.116009,-0.138107 0.939126,0.143631 -0.138106,0.09944 0.292786,0.07734 0.60767,-0.09391 0.265165,-0.02762 -0.04419,-0.11601 -0.353554,-0.07182 -0.09391,-0.132582 0.09391,-0.651864 0.740253,-0.08839 0.356065,0.344707 0.195312,0.144531 0.175782,-0.08203 0.03125,-0.296875 h 0.273437 l -0.296875,-0.332031 0.15625,-0.148438 0.140625,0.06641 c 0,0 -0.02344,0.105468 -0.0078,0.132812 0.01563,0.02734 0.390625,0.519531 0.390625,0.519531 l -0.285157,0.203125 c 0,0 0.0625,0.179688 0.05078,0.21875 -0.01172,0.03906 -0.07813,0.152344 -0.07813,0.152344 l -0.01563,0.207031 0.03906,0.257813 -0.21875,0.167969 -0.152344,0.08203 0.195313,0.285156 -0.07031,0.222656 0.851563,0.96875 1.546875,1.433594 0.07813,-0.15625 0.08203,-0.351563 -0.28125,-0.367187 0.238281,-0.152344 0.175782,0.08203 -0.40625,-0.398438 0.105468,-0.203125 0.328125,0.03125 -0.01563,-0.207031 -0.4375,-0.285156 -0.105468,-0.277344 0.285156,0.113281 0.07031,-0.101562 -0.679687,-0.457032 0.03516,-0.171875 -0.359375,-0.125 0.01563,0.109375 -0.277344,-0.179687 -0.08984,-0.457031 c 0,0 -0.15625,-0.1875 -0.15625,-0.210938 0,-0.02344 0.152343,-0.03516 0.152343,-0.03516 l 0.261719,0.03906 0.02344,-0.164062 c 0,0 0.05469,-0.09375 0.07422,-0.08594 0.01953,0.0078 0.210938,0.25 0.210938,0.25 0,0 0.121094,-0.01563 0.121094,-0.04297 0,-0.02734 0,-0.152344 0,-0.152344 L 43.132812,12.675781 44,12.945313 43.863281,12.707031 c 0,0 0.667873,-0.752507 0.778359,-0.746983 0.110485,0.0055 0.795495,0.01105 0.795495,0.01105 v -0.160204 l -1.209816,-0.640816 c 0,0 -0.475087,-0.149155 -0.419844,-0.143631 0.05524,0.0055 0.49166,0.02762 0.49166,0.02762 l 0.07182,-0.309359 -0.447467,-0.254117 0.220971,-0.08839 0.359078,0.287262 0.789971,0.05524 1.440871,0.474041 0.15625,-0.09375 -0.5625,-0.40625 0.375,-0.07031 -0.117188,-0.234375 -1.6875,-0.390625 0.515625,0.359375 L 44.679687,10.0625 41.757812,9.203125 39.226562,8.921875 39.335937,9.15625 39.820312,9.3515625 39.742187,9.4375 38.671875,9.0859375 36.59375,9.09375 35.992187,8.703125 33.859375,8.6328125 32.617187,8.1796875 30.015625,7.9296875 29.820312,8.09375 30.40625,8.4140625 29.765625,8.4609375 28.34375,8.34375 l 0.07813,0.359375 -0.992188,-0.3046875 -0.773437,-0.625 -4.125,-0.1875 -1.759988,0.3911109 0.287262,9.2255336 -0.718156,1.160097 -0.729203,1.005418 0.519281,0.972271 -1.624136,0.972272 -0.37565,0.331457 0.09944,0.486136 c 0,0 0.37565,0.05524 0.408796,0.132582 0.03315,0.07734 0.132582,0.464039 0.132582,0.464039 l -0.972272,0.320408 -0.08839,0.994369 -0.364602,0.165728 -0.03314,0.519281 -0.464039,0.563476 -0.441942,0.209922 -0.04419,0.486136 -1.834058,0.03315 c 0,0 0.662912,0.850738 0.696058,0.90598 0.03315,0.05524 0.209922,0.386699 0.209922,0.386699 l -0.519281,0.475088 0.06629,0.419844 1.66833,-0.176776 0.861786,0.928077 0.287262,0.243068 0.441942,-0.06629 -0.143631,0.198874 -0.386699,0.03315 0.60767,0.740253 0.464039,-0.06629 0.176777,-0.618719 0.132582,0.08839 0.09944,0.98332 0.309359,1.568893 1.535748,3.535534 0.254116,0.143631 c 0,0 0.419845,-0.110485 0.419845,-0.176777 0,-0.06629 0.209922,-0.685009 0.209922,-0.685009 l 0.209923,-0.110486 0.06629,-2.220757 0.635291,-0.563476 1.160097,-1.463932 0.381175,-0.359077 0.154679,-0.430894 0.441942,0.01105 0.950175,-0.541379 0.331456,0.795495 0.734728,0.91703 0.303835,0.430893 -0.04972,0.834165 0.314883,0.171252 0.226496,-0.01657 0.397747,-0.342504 0.03867,-0.353554 0.198874,0.325932 0.557951,1.563369 0.149156,0.673961 -0.138107,1.452884 0.127058,0.07734 0.220971,0.171252 0.392223,0.513757 0.23202,0.966748 0.287262,0.718155 0.696058,0.563476 0.248592,0.08286 0.182301,0.0055 0.07734,-0.07182 -0.276214,-0.502709 -0.149155,-0.546903 0.03867,-0.436417 -0.447466,-0.618719 -0.336981,-0.281738 -0.381174,-0.138107 -0.138107,-0.646339 -0.171253,-0.259641 -0.209922,-0.05524 -0.0221,-0.596621 0.155739,-0.520389 0.08594,-0.167969 -0.05469,-0.503906 0.308593,-0.02344 v 0.320313 l 0.351563,0.05859 0.382812,0.304687 0.140625,0.40625 0.132813,0.04687 0.05859,-0.117187 0.04297,0.140625 -0.02344,0.07031 0.0625,0.08203 c 0,0 0.113281,-0.04687 0.136719,-0.03906 0.02344,0.0078 0.34375,0.21875 0.34375,0.21875 l -0.05469,0.273437 0.05859,0.367188 0.08203,-0.01953 0.546875,-0.4375 0.0039,-0.367188 0.214844,0.0625 0.605469,-0.382812 0.08203,-0.71875 -0.08594,-0.625 -0.277344,-0.675782 -0.632813,-0.574218 -0.347656,-0.488282 -0.308594,-0.558593 0.269532,-0.535157 0.148437,-0.226562 z"
         id="path1" /><path
         style="fill:#000000"
         d="M 36.65625,28.078125 36.5,28.167969 36.292969,28.765625 c 0,0 0,0.222656 0,0.296875 0,0.07422 0.269531,0.375 0.269531,0.375 l 0.04687,0.113281 0.101562,-0.0039 -0.02344,-0.273438 c 0,0 0.132812,-0.179687 0.132812,-0.199218 0,-0.01953 0.0078,-0.679688 0.0078,-0.679688 l 0.0078,-0.226562 z"
         id="path2" /><path
         style="fill:#000000"
         d="m 32.488281,31.125 0.351563,0.117187 0.07031,-0.08203 0.144531,-0.105469 0.144532,-0.359375 0.05469,-0.132812 -0.144531,-0.21875 -0.101563,0.0625 -0.386718,0.04297 -0.21875,0.28125 z"
         id="path3" /><path
         style="fill:#000000"
         d="m 38.5,24.519531 c 0,0 0.167969,0.273438 0.195312,0.273438 0.02734,0 0.210938,-0.0078 0.210938,-0.0078 l 0.05859,-0.06641 0.03516,0.273437 -0.05859,0.09375 0.121094,0.296875 0.160156,0.07813 0.0625,0.03516 0.132813,-0.136719 0.04687,-0.05859 0.0078,-0.625 -0.230469,-0.320312 -0.320312,-0.140625 -0.160156,0.05078 -0.132813,0.195312 z"
         id="path4" /><path
         style="fill:#000000"
         d="m 39.414062,24.46875 0.105469,-0.01172 0.08984,0.203125 0.230469,0.09375 v -0.238281 l 0.125,-0.07422 0.203125,0.07031 0.08203,-0.246094 -0.04297,-0.175781 -0.242187,-0.06641 -0.160157,0.04687 0.01563,0.08594 -0.210937,-0.02734 L 39.5,24.367187 Z"
         id="path5" /><path
         style="fill:#000000"
         d="m 39.351562,24.242187 -0.425781,-0.04297 -0.08984,-0.144532 0.175782,-0.109375 0.292968,-0.449218 0.71875,-0.07031 0.175782,0.07031 0.113281,-0.0039 0.03516,-0.277343 0.01172,-0.484375 0.113281,-0.125 0.01953,0.21875 0.08594,0.113281 0.277344,-0.160156 0.160156,-0.363282 0.03125,-0.492187 L 40.804687,21.480469 40.722656,21 l 0.175781,-0.15625 0.214844,0.03125 0.08203,0.289062 0.316407,0.226563 0.261718,0.527344 0.0078,0.320312 c 0,0 -0.164063,-0.03125 -0.160156,-0.0078 0.0039,0.02344 0.03516,0.144531 0.05469,0.199218 0.01953,0.05469 0.21875,0.410157 0.21875,0.410157 l 0.01172,0.277343 0.210937,0.28125 -0.105468,0.304688 -0.09766,0.07422 -0.101562,-0.285157 -0.06641,0.03516 0.03516,0.125 -0.140625,-0.05859 0.01953,0.269531 -0.132812,0.05469 -0.496094,0.0078 -0.207031,-0.210937 c 0,0 -0.04297,-0.01953 -0.04687,0.02344 -0.0039,0.04297 0.04297,0.1875 0.04297,0.1875 0,0 0.148438,0.08594 0.148438,0.105469 0,0.01953 -0.175781,0.05078 -0.175781,0.05078 l -0.04297,0.351563 -0.21875,-0.05469 -0.203125,-0.269531 0.05859,-0.191406 -0.296875,-0.04687 -0.261719,0.136718 c 0,0 -0.4375,0.01953 -0.429688,0.07031 0.0078,0.05078 -0.04687,0.164062 -0.04687,0.164062 z"
         id="path6" /><path
         style="fill:#000000"
         d="m 40.5625,20.867187 0.121094,-0.03906 c 0,0 -0.01953,-0.08594 -0.0039,-0.08594 0.01563,0 0.160157,-0.01172 0.160157,-0.01172 l 0.0078,-0.101563 -0.410156,-0.148437 0.01172,-0.101563 0.175781,0.07031 0.179687,-0.04297 0.128907,-0.04687 0.574218,0.273437 0.06641,-0.04297 -0.0625,-0.246094 0.3125,-0.144531 0.222656,-0.128907 -0.21875,-0.15625 -0.167969,-0.320312 -0.09766,0.183594 c 0,0 -0.292969,-0.07813 -0.316406,-0.08984 -0.02344,-0.01172 -1,-0.546875 -1,-0.546875 l -0.125,-0.05859 c 0,0 -0.01172,0.08594 -0.0039,0.101563 0.0078,0.01563 0.199219,0.179687 0.214844,0.21875 0.01563,0.03906 0.152344,0.449218 0.152344,0.449218 l 0.08203,0.210938 -0.101562,0.02344 -0.207032,-0.06641 -0.0625,0.05078 0.132813,0.109375 -0.03125,0.121094 -0.07031,0.105469 0.08984,0.132812 0.148438,0.07422 0.03125,0.1875 z"
         id="path7" /><path
         style="fill:#000000"
         d="m 37.855469,15.695313 0.285156,0.468749 0.277344,0.304688 c 0,0 0.257812,0.175781 0.269531,0.210937 0.01172,0.03516 0.347656,0.503907 0.347656,0.503907 l 0.222656,0.535156 0.289063,0.179687 0.06641,0.300782 0.199219,0.234375 0.1875,0.390625 0.136719,0.08984 -0.05469,-0.359375 0.121094,0.06641 c 0,0 0.07813,-0.03906 0.132812,0.0078 0.05469,0.04687 0.144532,0.171875 0.144532,0.171875 l 0.04297,-0.03125 L 40.339844,18.5 H 40.210937 L 39.761719,18.0625 39.53125,17.496094 39.644531,17.382812 40.25,17.746094 40.203125,17.625 38.71875,16.28125 l -0.339844,-0.574219 -0.664062,-0.507812 -0.04687,0.128906 0.292968,0.15625 0.01563,0.08594 0.03516,0.07422 -0.195313,-0.03516 z"
         id="path8" /><path
         style="fill:#000000"
         d="m 33.335937,38.453125 -0.3125,0.53125 c 0,0 0.242188,0.804687 0.28125,0.875 0.03906,0.07031 0.242188,0.851562 0.257813,0.882812 0.01563,0.03125 0.429687,-0.164062 0.460937,-0.101562 0.03125,0.0625 0.148438,0.445312 0.1875,0.40625 C 34.25,41.007812 34.757812,40.75 34.757812,40.75 l 0.390625,0.164062 c 0,0 -0.03125,0.296875 0.01563,0.304688 0.04687,0.0078 0.53125,-0.25 0.53125,-0.25 l 0.429688,-1.117188 0.3125,-0.867187 0.382812,0.07031 c 0,0 0.125,-0.234375 0.08594,-0.25 -0.03906,-0.01563 -0.515625,-0.3125 -0.515625,-0.3125 l 0.1875,-0.210937 -0.296875,-0.523438 0.4375,-0.390625 -0.226563,-0.1875 0.40625,-0.101562 0.03906,-0.148438 -0.835938,-0.726562 -0.4375,0.484375 -0.1875,0.289062 0.0625,0.179688 -0.328125,-0.03125 c 0,0 -0.273437,0.132812 -0.28125,0.203125 -0.0078,0.07031 -0.25,0.5625 -0.25,0.5625 l -0.601562,0.1875 -0.179688,0.59375 z"
         id="path9" /><path
         style="fill:#000000"
         d="m 37.621094,38.761719 c -0.04297,0.03516 -0.15625,0.199218 -0.15625,0.199218 l -0.160157,-0.04687 -0.175781,0.46875 -0.152344,0.550782 -0.164062,0.660156 -0.05469,0.335937 0.238282,0.01172 -0.05078,0.894531 0.117188,0.08594 0.273437,-0.03906 0.01563,-1.195312 0.21875,-0.125 -0.04297,0.320312 0.195312,0.308594 0.04297,0.277344 0.136719,0.08203 0.101562,-0.148437 0.234375,-0.06641 0.08203,-0.08594 -0.261718,-0.316406 0.0625,-0.21875 -0.328125,-0.460938 0.136718,-0.117187 0.410157,-0.34375 c 0,0 0.03516,-0.03125 0.05859,-0.01953 0.02344,0.01172 0.08594,0.05078 0.08594,0.05078 l 0.07031,-0.140625 -0.101562,-0.08594 -0.160156,0.02734 -0.199219,0.08984 -0.265625,0.0078 -0.195313,0.28125 -0.195312,-0.183594 -0.136719,-0.09766 -0.02344,-0.320312 0.140625,-0.25 0.269531,0.02734 0.433594,-0.02344 0.257812,0.01953 0.171875,0.0625 h 0.246094 l 0.257812,-0.261719 0.164063,-0.324218 -0.125,-0.09375 -0.199219,0.203125 -0.316406,0.203125 -0.40625,-0.04297 -0.386719,-0.0625 -0.128906,-0.08594 z"
         id="path10" /><path
         style="fill:#000000"
         d="m 27.9375,36.964844 c 0,0 0.398437,0.652343 0.429687,0.660156 0.03125,0.0078 0.242188,0.125 0.242188,0.125 l 0.242187,0.363281 0.0625,0.257813 0.273438,0.117187 0.105469,0.199219 0.15625,0.566406 0.117187,0.02344 0.472656,0.84375 0.503907,0.988281 c 0,0 0.855468,0.894531 0.894531,0.902344 0.03906,0.0078 0.0078,-0.191407 0.0078,-0.191407 l 0.183594,0.121094 0.07813,-0.136719 0.167969,0.183594 0.05078,-0.207031 0.09375,-1.015625 L 31.863281,40.46875 31.59375,40.375 31.402344,39.824219 31.136719,39.78125 31.082031,39.511719 31.25,39.351562 l -0.230469,-0.28125 -0.105469,-0.1875 -0.261718,-0.234375 -0.277344,-0.05859 0.09375,-0.113282 -0.320313,-0.113281 -0.08984,0.04297 -0.996094,-1.058594 -0.257813,-0.339844 -0.441406,0.02344 -0.332031,-0.183594 z"
         id="path11" /><path
         style="fill:#000000"
         d="m 37.894531,36.269531 c 0.01563,0 0.117188,-0.07422 0.125,-0.117187 0.0078,-0.04297 0.07422,-0.257813 0.07422,-0.257813 l 0.04687,0.113281 0.109375,0.01953 0.203125,-0.132813 0.179687,0.101563 0.0078,0.460937 0.332031,0.304688 0.207031,0.128906 c 0,0 0.125,-0.160156 0.128907,-0.238281 0.0039,-0.07813 -0.117188,-0.246094 -0.117188,-0.246094 0,0 0.05469,-0.285156 0.08594,-0.269531 0.03125,0.01563 0.175781,0.417968 0.175781,0.417968 l 0.101562,-0.300781 0.06641,-0.292969 -0.269532,-0.765625 -0.25,-0.207031 0.03516,0.328125 h -0.15625 c 0,0 -0.09375,0.08594 -0.09375,0.109375 0,0.02344 -0.234375,0.179688 -0.234375,0.179688 l -0.09766,0.08594 -0.109375,-0.222656 -0.363281,0.214844 -0.183594,0.136718 -0.05859,0.398438 z"
         id="path12" /><path
         style="fill:#000000"
         d="m 36.894531,31.101562 -0.06641,0.265625 0.07422,0.820313 -0.191407,-0.140625 -0.02734,0.199219 0.210937,0.519531 0.109375,0.140625 0.0625,-0.15625 0.152344,0.08984 -0.148438,0.171875 0.05859,0.21875 0.167969,0.05078 0.234375,-0.109375 0.34375,0.324219 0.06641,-0.03906 -0.136719,-0.300781 c 0,0 0.296875,0.25 0.308594,0.265625 0.01172,0.01563 0.07422,0.164062 0.07422,0.164062 L 38.453125,33.75 38.5,33.621094 l -0.199219,-0.238282 -0.08203,-0.08984 0.148437,-0.05078 c 0,0 -0.07813,-0.148437 -0.109375,-0.148437 -0.03125,0 -0.203125,-0.02344 -0.203125,-0.02344 l 0.03516,0.152344 -0.1875,-0.265625 -0.21875,0.05078 -0.132813,0.05078 -0.113281,-0.363282 -0.07813,-0.21875 0.144531,-0.304687 0.121094,-0.242188 0.03516,-0.273437 -0.164062,-0.289063 0.01953,-0.25 -0.179688,0.07031 -0.304687,-0.136719 -0.144531,0.01953 z"
         id="path13" /><path
         style="fill:#000000"
         d="m 36.054687,35.632812 c 0.02734,-0.01563 0.558594,-0.519531 0.558594,-0.519531 v -0.140625 l 0.175781,-0.125 c 0,0 0.144532,-0.152344 0.132813,-0.171875 -0.01172,-0.01953 -0.07813,-0.417969 -0.07813,-0.417969 l -0.09766,0.199219 -0.01172,0.238281 -0.140625,0.08594 -0.167969,0.335937 -0.320312,0.292969 z"
         id="path14" /><path
         style="fill:#000000"
         d="m 37.964844,35.117187 0.128906,0.08594 0.117187,0.121094 0.07813,-0.04297 0.0039,-0.07031 -0.05078,-0.179687 0.109375,-0.453125 -0.04687,-0.105469 h -0.140625 l -0.08984,0.210938 0.03516,0.1875 -0.152344,0.06641 z"
         id="path15" /><path
         style="fill:#000000"
         d="m 37.761719,34.71875 0.269531,-0.164063 0.144531,-0.179687 -0.01563,-0.152344 -0.453125,-0.175781 -0.0078,0.08594 0.05078,0.07422 z"
         id="path16" /><path
         style="fill:#000000"
         d="M 37.039062,33.367187 37.203125,33.625 c 0,0 0.136719,0.234375 0.15625,0.242187 0.01953,0.0078 0.109375,0 0.109375,0 l 0.03516,-0.308593 -0.07422,-0.144532 -0.277343,-0.109375 z"
         id="path17" /><path
         style="fill:#000000"
         d="m 38.589844,34.285156 0.07813,0.222656 0.04687,-0.01953 0.08203,0.07031 0.01563,0.238281 0.109375,0.07422 -0.03516,-0.105469 h 0.09766 l -0.08594,-0.289063 -0.0078,-0.105468 0.210937,0.03906 0.05078,0.01172 -0.128907,-0.265625 -0.0039,-0.257813 -0.160156,-0.152343 -0.3125,0.0078 0.0625,0.179688 0.199219,0.171875 -0.01172,0.08984 v 0.09375 z"
         id="path18" /></g></g></svg>
