<?xml version="1.0" encoding="UTF-8" standalone="no"?>
<!-- Created with Inkscape (http://www.inkscape.org/) -->

<svg
   width="48"
   height="48"
   viewBox="0 0 48 48"
   version="1.1"
   id="svg1"
   xml:space="preserve"
   inkscape:export-filename="EU-bitmap-hd.png"
   inkscape:export-xdpi="148"
   inkscape:export-ydpi="148"
   inkscape:version="1.4 (e7c3feb100, 2024-10-09)"
   sodipodi:docname="eu.svg"
   xmlns:inkscape="http://www.inkscape.org/namespaces/inkscape"
   xmlns:sodipodi="http://sodipodi.sourceforge.net/DTD/sodipodi-0.dtd"
   xmlns="http://www.w3.org/2000/svg"
   xmlns:svg="http://www.w3.org/2000/svg"><sodipodi:namedview
     id="namedview1"
     pagecolor="#ffffff"
     bordercolor="#000000"
     borderopacity="0.25"
     inkscape:showpageshadow="2"
     inkscape:pageopacity="0.0"
     inkscape:pagecheckerboard="0"
     inkscape:deskcolor="#d1d1d1"
     inkscape:document-units="px"
     inkscape:zoom="24.145833"
     inkscape:cx="14.847282"
     inkscape:cy="24.911131"
     inkscape:window-width="2560"
     inkscape:window-height="1368"
     inkscape:window-x="0"
     inkscape:window-y="0"
     inkscape:window-maximized="1"
     inkscape:current-layer="layer1" /><defs
     id="defs1" /><g
     inkscape:label="Layer 1"
     inkscape:groupmode="layer"
     id="layer1"><g
       id="g3"
       transform="matrix(2.7206561,0,0,2.7995154,-36.309858,-44.231833)"><path
         style="fill:#000000"
         d="m 15.706644,30.170837 0.434857,-0.134599 0.735117,0.300259 0.766178,-0.921484 0.590163,-0.455565 0.693702,-0.176014 0.04142,-0.465919 0.455565,-0.05177 0.300259,0.289905 0.952545,-0.289905 0.41415,0.16566 0.383089,0.807593 1.159621,0.890423 0.155306,0.455565 -0.16566,0.300259 0.207075,0.113891 0.352028,-0.465919 -0.238137,-0.320966 0.176014,-0.24849 0.403796,0.24849 0.09318,-0.196721 -0.786885,-0.548749 -0.341674,-0.258844 -0.631579,-0.931838 -0.01035,-0.424504 0.24849,-0.05177 0.538396,0.517688 0.962899,0.890423 0.269197,0.134599 0.03106,0.797239 0.683348,1.232096 0.403797,0.144953 0.538395,-0.74547 -0.403797,-0.41415 -0.227782,-0.434858 0.403796,0.176014 0.227783,-0.310613 0.538395,0.02071 0.372735,-0.05177 0.424504,-0.186368 -0.372735,-0.631579 0.610871,-1.439171 0.362382,-0.393443 0.07248,0.207075 0.352027,0.01035 -0.04141,0.424504 0.238137,0.269197 0.776531,-0.57981 -0.517687,-0.07248 0.03106,-0.196721 0.921484,-0.662641 0.227783,-0.455565 -0.103538,-0.714409 -1.511648,-0.227782 -0.176014,-0.383089 -0.57981,0.103537 0.134599,-0.548749 -0.66264,-0.776531 -0.517688,-0.16566 -0.24849,-1.263158 0.476273,-1.553063 -0.983607,-2.795513 0.258844,-0.176014 -0.41415,-0.320967 -1.553063,0.859362 -1.190682,1.801553 -1.252804,0.797239 -0.207075,1.646247 1.07679,-0.196722 0.279552,1.594478 0.838654,-0.217428 0.704055,-1.511648 -0.269198,-0.548749 0.04141,-0.641933 c 0,0 0.528042,-0.465919 0.569457,-0.507334 0.04142,-0.04141 0.424503,-0.797239 0.424503,-0.797239 0,0 0.207076,0.176014 0.248491,0.196721 0.04141,0.02071 -0.258844,0.538396 -0.258844,0.538396 l -0.434858,0.465918 0.207075,0.9629 0.383089,0.227782 0.849008,-0.320966 0.06212,0.434857 -0.486626,-0.03106 -0.434858,0.207075 c 0,0 0.06212,0.310613 0.07248,0.362382 0.01035,0.05177 0.176013,0.383088 0.176013,0.383088 l -0.362381,-0.113891 -0.289905,0.07248 -0.176014,0.993961 -0.476273,0.310612 -0.217428,-0.320966 -0.869716,0.465919 -0.09318,-0.320966 -0.631579,0.124245 -0.03106,-0.559103 0.113892,-0.8283 -0.04142,-0.134599 -0.538396,0.258844 -0.186367,1.273511 -1.045729,0.24849 -0.372735,0.528042 -0.559103,0.124245 -0.01035,0.258844 -0.517687,0.227782 -0.403797,-0.124245 -0.300259,0.217429 -0.144952,-0.24849 -0.455565,0.02071 0.01035,0.486627 0.476273,0.289905 0.05177,0.8283 -0.320966,0.693702 -1.749785,-0.817947 -0.41415,0.155306 -0.05177,0.869716 -0.590164,0.869715 -0.02071,0.652286 0.548749,0.08283 z"
         id="path1" /><path
         style="fill:#000000"
         d="m 18.068744,24.723723 0.863903,0.270885 0.388024,-0.06589 c 0,0 -0.219636,-0.18303 -0.175709,-0.18303 0.04393,0 0.380703,-0.263564 0.380703,-0.263564 l -0.07321,-0.351418 -0.30017,-0.01464 c 0,0 0.161067,-0.519806 0.153745,-0.549091 -0.0073,-0.02929 -0.300169,-0.951757 -0.300169,-0.951757 l 0.344097,-0.431951 -0.505164,-0.204994 0.366061,-0.270885 -0.07321,-0.2416 -0.395346,0.05857 -0.08053,0.256242 -0.146424,-0.131782 -0.263564,1.339782 0.402667,0.07321 -0.153746,0.673551 -0.402666,-0.08053 -0.270885,0.439272 0.212315,0.336776 h 0.307491 l -0.117139,0.153745 -0.409988,-0.153745 -0.380703,0.329454 0.446594,0.146424 z"
         id="path2" /><path
         style="fill:#000000"
         d="m 16.641108,23.823215 c 0.05125,0 0.988364,0.07321 0.988364,0.07321 l 0.234278,-0.658909 0.256243,-0.139103 -0.03661,-0.505164 -1.068897,0.102497 -0.08053,0.636946 -0.366061,0.204993 z"
         id="path3" /></g></g></svg>
