<?xml version="1.0" encoding="UTF-8" standalone="no"?>
<!-- Created with Inkscape (http://www.inkscape.org/) -->

<svg
   width="48"
   height="48"
   viewBox="0 0 48 48"
   version="1.1"
   id="svg1"
   xml:space="preserve"
   inkscape:version="1.4 (e7c3feb100, 2024-10-09)"
   sodipodi:docname="na-rv.svg"
   xmlns:inkscape="http://www.inkscape.org/namespaces/inkscape"
   xmlns:sodipodi="http://sodipodi.sourceforge.net/DTD/sodipodi-0.dtd"
   xmlns="http://www.w3.org/2000/svg"
   xmlns:svg="http://www.w3.org/2000/svg"><sodipodi:namedview
     id="namedview1"
     pagecolor="#505050"
     bordercolor="#ffffff"
     borderopacity="1"
     inkscape:showpageshadow="0"
     inkscape:pageopacity="0"
     inkscape:pagecheckerboard="1"
     inkscape:deskcolor="#505050"
     inkscape:document-units="px"
     inkscape:zoom="22.627417"
     inkscape:cx="15.445864"
     inkscape:cy="26.538601"
     inkscape:window-width="2560"
     inkscape:window-height="1368"
     inkscape:window-x="0"
     inkscape:window-y="0"
     inkscape:window-maximized="1"
     inkscape:current-layer="layer1"><inkscape:page
       x="0"
       y="0"
       width="48"
       height="48"
       id="page2"
       margin="0"
       bleed="0" /></sodipodi:namedview><defs
     id="defs1" /><g
     inkscape:label="Layer 1"
     inkscape:groupmode="layer"
     id="layer1"><path
       style="fill:#000000;stroke-width:1.18117"
       d="m 13.767384,19.006083 -0.03478,0.533702 c 0,0 0.286957,0.171373 0.291304,0.244818 0.0043,0.07344 -0.06087,0.474946 -0.06087,0.474946 l -0.26087,0.02938 -0.395651,-0.220337 -0.72174,-1.307324 0.256522,-0.171373 0.317391,0.25461 z"
       id="path4" /><path
       style="fill:#000000;stroke-width:1.18117"
       d="m 12.123906,17.664484 -0.06087,-0.225233 0.147827,-0.45536 0.599999,-0.514117 -0.626087,-0.01469 -0.186957,0.220335 -0.1087,0.494531 0.07392,0.572874 z"
       id="path5" /><path
       id="path6"
       style="fill:#000000;stroke-width:1.18014"
       d="m 13.565981,16.303298 0.98524,-1.082094 -0.0087,-0.107723 -0.416666,-0.332951 0.238716,-1.189813 -0.06076,-0.807898 -1.33246,0.519013 0.134547,-0.920514 -0.776907,0.08324 L 18.218747,6.7994835 17.702255,6.5644587 15.488721,6.3245378 14.633687,6.3000576 14.603312,6.0699288 13.522586,5.8251106 10.671032,6.4763262 7.3680909,7.5780048 7.6892704,7.8522005 7.585104,8.2928714 8.1884008,8.3369433 7.9627071,8.8265784 6.7995162,8.8853283 7.1684386,8.5817552 6.1658376,8.7384384 4.7422308,9.1546279 l 0.099827,0.3623306 -0.1692702,0.2741956 1.0546842,0.04896 1.263017,-0.2203355 -0.00434,0.1224135 -0.7508657,0.6267329 -1.5060717,0.386812 -1.2760377,0.391708 -0.9288166,0.514117 -0.043403,0.528806 -0.3472211,0.161579 0.039062,0.450464 0.7638866,-0.1322 0.095485,0.102822 -0.8029491,0.758934 1.1805521,0.132201 1.067705,-0.269298 -0.5381927,0.298677 -0.4687486,0.425982 -2.3003402,1.052715 -0.81162945,0.205647 -0.0737845,0.186061 0.27343667,0.05386 c 0,0 0.74652548,-0.210543 0.77690728,-0.210543 0.030382,0 0.9201361,-0.283988 0.9201361,-0.283988 l 1.1545104,-0.514116 2.6562417,-1.204503 0.026041,-0.117513 -0.2083327,-0.09793 1.7187447,-0.803001 1.2760378,-0.538598 0.1909716,0.20075 -0.4253459,0.0098 -1.2890584,0.719764 -0.4210058,0.377018 0.3038185,-0.01469 1.6970434,-0.450465 0.6944424,-0.646318 0.5729151,0.195854 0.555554,0.460257 0.985241,0.0049 0.703122,0.445568 0.355902,0.656112 -0.282117,1.273051 0.303818,0.959685 0.334201,-0.220337 0.355901,0.220337 z m 17.327495,8.230765 0.178261,-0.176269 0.08696,0.02938 0.165217,-0.02938 -0.07826,-0.141994 0.204348,-0.274195 0.169565,-0.07344 0.273913,-0.156683 0.178261,-0.47005 0.386957,-0.470049 -0.0087,-0.372123 0.09566,0.03427 0.07392,0.210543 0.299999,0.2693 0.139131,-0.06365 0.0043,-0.181165 0.165218,0.02448 -0.195652,-0.719762 -0.447827,-0.176269 -1.000001,-0.146891 -0.13913,-0.151787 0.130435,-0.592458 0.06087,-0.347642 -0.391304,0.0098 -0.07392,-0.52391 -0.726088,-0.18606 -1.069566,0.700177 -1.213043,-0.440671 -0.391305,0.06365 -0.413044,-0.137098 0.06956,-0.4015 -0.08696,-0.03427 -0.05652,0.328056 -12.821743,-0.0049 -0.126086,-0.06855 -0.36087,-0.626733 -0.22174,-0.352538 -0.621738,-0.391708 0.160869,-1.963436 1.247827,-1.346497 -0.465218,-0.386812 0.273913,-1.194709 -0.05652,-0.763831 -1.365217,0.519014 0.143478,-0.915618 -0.839131,0.07344 5.991306,-5.7287307 1.421497,0.4914551 2.557883,-0.7201474 3.418709,0.1523387 2.065982,0.581657 0.122975,0.2492818 -0.762445,0.3600731 2.115171,-0.027702 0.282844,0.5401096 0.63947,-0.6647505 2.963701,0.1523387 c 0,0 0.774743,-0.4154687 0.88542,-0.4016204 0.110682,0.013851 1.008396,0.2769795 1.008396,0.2769795 l 0.774744,-0.5401096 -0.332033,-0.5678075 1.032991,-0.9971257 0.73785,-0.055403 -0.0246,1.7172732 0.627174,-0.3046774 0.332033,0.1523387 -0.553389,0.8309375 h 0.565686 l 1.426511,-1.329501 1.045289,0.1246446 0.221355,0.2908291 -0.381223,0.4708645 -0.368925,0.1384904 0.122975,0.5401096 -1.856925,0.6785988 -0.676363,0.013851 -1.352726,1.0248236 -4.008989,2.0496487 -1.094479,1.163313 0.04919,0.318527 0.504199,-0.0277 -0.356628,1.163313 0.528793,-0.221583 0.836231,0.221583 0.897718,0.830939 1.463404,0.304677 -0.639471,1.398746 0.221356,0.94173 0.270545,0.484714 0.787041,-0.733995 0.39352,-1.772669 1.746247,-0.927881 0.405818,-1.20486 -0.39352,-0.332375 0.319735,-0.387773 1.266644,-2.049647 1.709355,-0.01385 1.27894,0.941731 -0.270545,0.650902 -0.110681,0.553959 0.504198,0.332375 0.700958,-0.221584 1.082181,-1.107918 0.516496,2.229685 -0.233652,0.553959 1.168263,1.038672 c 0,0 0.516495,0.69245 0.528793,0.761694 0.0123,0.06924 -0.221355,0.914032 -0.221355,0.914032 l -1.008397,0.429318 -1.205156,0.637053 -0.9838,0.221584 -2.201256,-0.04155 -2.779237,2.077347 -0.267271,0.246643 0.678261,-0.347641 0.986957,-0.788312 1.082608,-0.494533 0.917392,-0.02448 0.165218,0.362331 -0.756522,0.421085 -0.16087,0.220336 0.156522,0.700178 0.210596,0.382993 c 0,0 0.4919,0.21466 0.559536,0.228508 0.06764,0.01385 1.217454,-0.837863 1.217454,-0.837863 l 0.104526,0.124645 -0.147571,0.318527 0.264397,0.166187 -0.166016,0.186962 -0.664066,0.436242 -1.617123,0.52626 -0.793189,0.6786 -0.319736,-0.20081 0.166016,-0.505488 0.381224,-0.290828 0.940759,-0.283903 -0.344331,-0.180037 -1.38347,0.304677 -0.07423,-0.119467 c 0,0 -0.07826,-0.210544 -0.07392,-0.264404 0.0043,-0.05386 0.321739,-0.915617 0.321739,-0.915617 l -0.152173,-0.09793 -0.295652,0.08813 -0.08261,-0.127304 -1.169565,1.410149 -0.452174,0.259506 -1.656523,-0.02448 -0.743478,0.514116 -0.108699,0.396605 -0.373913,0.235024 h -0.634783 l -0.330435,-0.04407 -0.139131,0.337847 -1.665217,0.896033 -0.534783,0.102822 -0.330435,-0.16158 -0.08696,-0.20075 z m -19.09132,6.650784 0.04347,-0.4477 -0.382608,-0.398505 -0.01739,-0.201713 -0.82174,-0.30011 c 0,0 -0.07391,-0.05412 -0.05652,-0.11315 0.01739,-0.05904 0.126086,-0.373908 0.126086,-0.373908 l -0.286957,-0.846208 0.173914,-0.295187 -0.217391,-0.285349 -0.04348,-1.52022 0.173912,-0.157432 -0.07391,-0.472303 1.091307,-2.24343 0.543476,-0.595296 0.78261,-1.505461 0.38261,-1.072517 0.886957,0.132835 0.37826,-0.580537 1.165217,-0.03443 h 11.600006 l 0.06957,-0.309947 0.139129,0.0492 -0.06956,0.393584 0.386956,0.137755 0.378261,-0.05903 1.304349,0.452623 -1.517394,0.836367 0.204349,0.04428 0.460869,-0.221391 c 0,0 -0.0174,0.270588 0.0043,0.270588 0.02174,0 1.495652,-0.595296 1.495652,-0.595296 l -0.391304,0.442783 0.530436,0.236151 1.004348,-0.196792 -0.03914,0.22139 0.291305,-0.0246 0.0913,0.359145 -0.43913,0.07379 -0.182611,-0.108239 -0.778261,0.260749 -0.160869,-0.05903 -0.43913,0.447702 -0.01304,0.319787 c 0,0 -0.726088,1.210273 -0.721738,1.244712 0.0043,0.03443 -0.143479,0.72321 -0.143479,0.72321 l 0.195652,0.04919 0.347827,-0.250911 0.286955,-0.408343 0.152175,-0.678933 0.104348,-0.329627 0.286955,-0.403423 0.478263,-0.368986 0.526086,-0.393584 0.469566,0.334546 -0.04348,0.319787 -0.08261,0.290269 -0.465219,0.393585 -0.0087,0.147593 0.226088,-0.103314 0.326087,-0.216472 0.09566,0.0984 -0.186958,0.806848 -0.747827,0.674013 0.117392,0.142675 0.226088,0.103314 0.252175,-0.01476 c 0,0 0.260868,-0.05412 0.282608,-0.05903 0.02174,-0.0049 1.608696,-0.870805 1.608696,-0.870805 l -0.03043,-0.182033 0.06521,-0.172193 0.447827,-0.03443 0.217391,0.0984 0.41739,-0.03936 c 0,0 0.308697,-0.177113 0.347827,-0.216472 0.03914,-0.03936 0.0913,-0.334546 0.0913,-0.334546 l 0.408694,-0.339466 0.395654,-0.25583 1.682609,-0.0098 0.304348,-0.24599 c 0,0 0.08261,0.01969 0.104349,0.0098 0.02174,-0.0098 1.21739,-1.421823 1.21739,-1.421823 l 0.104349,0.162353 0.36087,-0.0984 0.09566,0.211552 -0.291304,0.831446 0.117389,0.142675 -0.05217,0.305028 0.1,-0.01476 -0.03914,0.373905 -2.286958,0.698613 z M 39.2731,22.81158 l -1.662361,0.660736 -0.456335,0.422137 -0.122233,0.357899 -0.07334,0.486374 0.130382,0.04589 0.06519,0.05506 -0.236316,0.08259 -0.717094,0.156007 -0.138532,0.238599 -0.969711,0.302837 -0.350399,0.651559 -1.352706,1.688547 -0.05705,-0.183538 0.228169,-0.394606 -0.06519,-0.761681 -0.138529,0.110117 -0.105939,1.027813 -0.09779,0.275306 0.195572,0.165184 -0.03259,0.688266 -0.651907,0.688265 -1.613469,1.009458 -0.529672,0.568966 -0.790436,0.706623 -0.244465,0.523081 0.146678,1.578424 0.07334,1.321472 -0.342253,0.991104 -0.358548,0.02753 -0.325951,-0.624031 -0.301508,-0.981925 0.0081,-0.422139 0.187425,-0.688265 -0.513376,-0.715796 -0.611163,0.266127 -0.366698,-0.403781 -0.293359,-0.09177 -0.635606,0.137654 -0.162976,-0.128475 -0.660057,0.119305 0.04075,0.211068 -0.179275,0.183538 0.162976,0.156006 0.07334,0.211068 -0.195572,0.110116 -0.317804,-0.412957 -0.05704,0.275305 -0.325954,0.01835 -0.236316,-0.110119 -0.334103,-0.183536 -0.676352,-0.137654 -0.733396,0.220244 -0.521522,0.486376 -0.725247,0.348722 -0.472631,0.789212 -0.08149,0.67909 -0.02444,0.367073 -0.472635,1.248059 c 0,0 -0.228166,1.036988 -0.211867,1.073696 0.01629,0.03671 0.122232,0.651558 0.122232,0.651558 l 0.570416,1.642661 0.407442,0.137654 0.228167,0.330368 0.431887,-0.146829 0.660057,-0.256952 0.570419,-0.100943 0.431887,-0.550615 0.334101,-0.97275 0.440036,-0.247776 0.643758,-0.07341 0.692652,-0.0092 0.203721,0.284485 -0.293359,0.412957 -0.643758,1.615135 -0.27706,-0.192717 -0.301506,0.41296 -1.091944,0.05506 -0.09778,0.357901 -0.236316,0.04589 0.456333,0.568966 -0.03259,0.220246 -0.806735,0.01835 -0.220019,1.055342 -0.871925,-1.165466 -0.513376,0.100943 -0.717096,0.367073 -1.597171,-0.743328 -1.686806,-1.046163 -0.969711,-0.97275 -0.146678,-0.486377 0.342249,-0.761682 -0.146678,-0.871803 -1.491236,-2.193276 0.179275,-0.385428 -0.301508,-0.431314 -0.668203,-1.192996 -0.244465,-1.431594 0.130382,-0.247776 -0.708948,-0.458844 -0.154827,0.908512 0.3341,1.183818 0.48893,1.339826 0.236316,1.486653 -0.07334,0.229425 h 0.203721 l 0.325954,0.70662 -0.34225,0.348722 -0.146681,-0.458847 -0.749691,-0.899333 v -0.29366 l 0.105941,-0.321192 -0.04075,-0.266128 -0.366698,-0.513906 -0.187422,0.119303 -0.578568,-0.79839 0.35855,-0.0091 0.244463,-0.302836 0.02444,-0.348722 -0.521525,-0.67909 -0.0489,-0.504728 -0.07334,-1.459126" /><path
       style="fill:#000000;stroke-width:1.18117"
       d="m 41.57174,19.299864 c 0.03043,0.01469 0.265218,0.146891 0.265218,0.146891 l 0.156521,0.20075 0.608696,0.171373 0.09566,-0.07344 -0.395651,-0.337847 -0.626087,-0.176269 z"
       id="path7"
       inkscape:label="path7" /><path
       style="fill:#000000;stroke-width:1.18117"
       d="m 43.502176,20.798148 c 0.04348,0.0098 1.134782,0.05386 1.134782,0.05386 l 0.378262,0.0098 0.17826,0.05875 0.321739,-0.20075 0.06956,0.09793 -0.656521,0.4015 0.06087,0.07344 0.217392,-0.03427 0.526087,-0.377019 0.208696,-0.249714 0.06087,0.220335 -0.291303,0.47005 0.07392,0.01469 0.269565,-0.186061 -0.07826,0.279092 0.23913,0.0098 0.226087,-0.318263 0.134782,-0.391708 -0.247826,0.156683 0.269566,-0.425983 -0.2,0.03427 -0.252174,0.372123 -0.08261,-0.210544 0.547826,-0.484737 -0.2,-0.03427 -0.282608,0.09793 0.05652,-0.269299 0.365218,-0.303574 -0.234784,-0.141995 -0.565217,0.195854 -0.278261,-0.23992 0.273914,-0.264403 -0.300001,-0.06855 -0.36088,0.288909 -0.03913,-0.102822 1.043479,-1.175124 -0.182608,-0.04407 -0.447827,0.210544 -0.417391,0.421086 -0.639131,0.827483 -0.426083,0.56798 -0.126087,0.235024 -0.339131,0.225232 z"
       id="path8" /><path
       style="fill:#000000;stroke-width:1.18117"
       d="m 40.306522,9.9723163 1.295652,-0.078342 0.426088,-0.05875 0.356521,0.7932087 0.8,0.567977 1.139132,0.303574 -0.02609,-0.489635 -0.591304,-0.519014 0.27826,-0.06855 1.008696,0.734452 0.556522,-0.685489 -0.730435,-1.3905641 0.504348,-0.489635 0.652175,0.9107218 0.356521,0.068552 1.38261,-1.0380264 L 45.628261,7.4360137 46.376087,7.0247203 46.367387,6.378402 44.289126,5.1151441 44.149996,4.625509 40.81956,4.439447 l -1.86087,0.7148679 -0.530435,0.9400993 0.434783,0.3721227 3.086957,0.195854 0.339131,-0.3035743 1.130435,1.2240883 0.156522,0.5581833 -1.069566,0.6169409 -0.173913,0.4994271 -1.504348,0.088131 -0.556522,0.4015001 z"
       id="path9" /><path
       style="fill:#000000;stroke-width:1.18117"
       d="m 36.232608,10.447262 0.634783,-0.107723 -0.169566,0.337848 0.430435,-0.05386 0.882609,-0.538598 0.169566,0.288883 0.499999,0.122414 0.386958,-0.132202 -0.05652,-0.244818 -0.486956,0.04407 L 38.719568,9.835221 37.967393,9.2770364 37.776088,9.007738 36.850002,9.9135626 36.202176,10.378716 Z"
       id="path10" /><path
       style="fill:#000000;stroke-width:1.18117"
       d="m 37.054347,11.30902 0.473913,-0.09303 0.530436,-0.337848 -0.117392,-0.07344 -0.521739,0.08813 -0.347826,0.264403 z"
       id="path11" /><path
       style="fill:#000000;stroke-width:1.18117"
       d="m 38.358696,11.573423 0.113043,0.09793 0.42174,-0.352538 -0.0174,-0.146891 -0.113044,-0.02448 -0.343479,0.249714 z"
       id="path12" /><path
       style="fill:#000000;stroke-width:1.18117"
       d="m 35.58913,41.206138 0.647826,0.0049 0.178261,-0.190958 -0.0174,-0.132202 -0.543478,-0.07834 -0.26087,0.01959 -0.03914,0.132202 0.05652,0.06855 z"
       id="path13" /><path
       style="fill:#000000"
       d="m 13.523417,16.219262 0.883884,-1.027515 -0.552428,-0.430893 0.353554,-1.756718 -1.171146,0.430893 -0.220971,-0.04419 0.165729,-0.784447 -0.806544,-0.03315 0.209922,-0.430893 5.76734,-5.4027375 0.232019,0.1104854 -5.734194,5.4469321 c 0,0 0.563476,-0.07734 0.563476,0.01105 0,0.08839 -0.06629,0.795496 -0.06629,0.795496 l 1.358971,-0.508233 0.06629,1.690427 -0.265165,0.45299 0.37565,0.37565 -0.187825,0.497185 -0.883883,0.861786 z"
       id="path14" /></g></svg>
