<?xml version="1.0" encoding="UTF-8" standalone="no"?>
<!-- Created with Inkscape (http://www.inkscape.org/) -->

<svg
   width="48"
   height="48"
   viewBox="0 0 48 48"
   version="1.1"
   id="svg1"
   xml:space="preserve"
   inkscape:version="1.4 (e7c3feb100, 2024-10-09)"
   sodipodi:docname="NA-revamp.svg"
   xmlns:inkscape="http://www.inkscape.org/namespaces/inkscape"
   xmlns:sodipodi="http://sodipodi.sourceforge.net/DTD/sodipodi-0.dtd"
   xmlns="http://www.w3.org/2000/svg"
   xmlns:svg="http://www.w3.org/2000/svg"><sodipodi:namedview
     id="namedview1"
     pagecolor="#505050"
     bordercolor="#ffffff"
     borderopacity="1"
     inkscape:showpageshadow="0"
     inkscape:pageopacity="0"
     inkscape:pagecheckerboard="1"
     inkscape:deskcolor="#505050"
     inkscape:document-units="px"
     inkscape:zoom="22.627417"
     inkscape:cx="16.727495"
     inkscape:cy="23.356621"
     inkscape:window-width="2560"
     inkscape:window-height="1368"
     inkscape:window-x="0"
     inkscape:window-y="0"
     inkscape:window-maximized="1"
     inkscape:current-layer="layer1"><inkscape:page
       x="0"
       y="0"
       width="48"
       height="48"
       id="page2"
       margin="0"
       bleed="0" /></sodipodi:namedview><defs
     id="defs1" /><g
     inkscape:label="Layer 1"
     inkscape:groupmode="layer"
     id="layer1"><g
       id="g13"
       transform="matrix(1.1130438,0,0,1.2534658,0.28911946,-11.904579)"><path
         style="display:inline;fill:#000000;stroke-width:45.2161"
         d="m -1762.1635,829.90736 -68.3766,23.53999 -18.7701,15.03945 -5.0277,12.75083 -3.0166,17.32804 5.3629,1.6349 2.6814,1.96179 -9.7202,2.94246 -29.4957,5.55807 -5.6981,8.50054 -39.8864,10.78916 -14.4127,23.21306 -55.6398,60.15775 -2.3464,-6.5389 9.3851,-14.0586 -2.6815,-27.13636 -5.698,3.92313 -4.3575,36.61783 -4.0224,9.8083 8.0443,5.885 -1.3405,24.5208 -26.8144,24.5208 -66.3656,35.9639 -21.7866,20.2705 -32.5124,25.1748 -10.0554,18.6358 6.0332,56.2344 3.0166,47.08 -14.0776,35.31 -14.7479,0.9807 -13.4071,-22.2323 -12.4017,-34.983 0.3342,-15.0395 7.7092,-24.5208 -21.1163,-25.5016 -25.1385,9.4813 -15.0831,-14.3855 -12.0665,-3.2694 -26.1439,4.9042 -6.7036,-4.5772 -27.1496,4.2505 1.6761,7.5197 -7.374,6.5389 6.7036,5.558 3.0166,7.5197 -8.0443,3.9231 -13.072,-14.7124 -2.3463,9.8083 -13.4072,0.6538 -9.7202,-3.9232 -13.7424,-6.5388 -27.8199,-4.9042 -30.1662,7.8466 -21.4514,17.3281 -29.831,12.4239 -19.4404,28.1172 -3.3517,24.1939 -1.0054,13.0777 -19.4405,44.4645 c 0,0 -9.385,36.9447 -8.7146,38.2525 0.6702,1.308 5.0277,23.213 5.0277,23.213 l 23.4625,58.523 16.759,4.9042 9.385,11.77 17.7645,-5.2311 27.1496,-9.1544 23.4626,-3.5963 17.7645,-19.6167 13.7423,-34.6561 18.0997,-8.8275 26.4792,-2.6155 28.4903,-0.326 8.3795,10.1353 -12.0665,14.7124 -26.4792,57.5423 -11.3961,-6.8659 -12.4016,14.7125 -44.9141,1.9618 -4.0219,12.7509 -9.7202,1.6349 18.77,20.2705 -1.3405,7.8467 -33.1828,0.6538 -9.0499,37.5986 -35.8642,-41.522 -21.1163,3.5963 -29.4958,13.0777 -65.6952,-26.4825 -69.3821,-37.2716 -39.8864,-34.6561 -6.0332,-17.3281 14.0775,-27.1364 -6.0332,-31.0597 -61.3379,-78.1397 7.374,-13.7316 -12.4017,-15.3664 -27.4847,-42.5028 -10.0554,-51.0033 5.3629,-8.8275 -29.1606,-16.3472 -6.3684,32.3675 13.7423,42.1758 20.1108,47.7339 9.7202,52.9649 -3.0166,8.1737 h 8.3795 l 13.4072,25.1747 -14.0775,12.4239 -6.0333,-16.3473 -30.8365,-32.0405 v -10.4622 l 4.3576,-11.4431 -1.6761,-9.4813 -15.0831,-18.3089 -7.7091,4.2504 -23.7978,-28.4442 14.748,-0.326 10.0553,-10.7891 1.0054,-12.4239 -21.4515,-24.1939 -2.0112,-17.9819 -3.0165,-51.9842"
         id="path1"
         transform="matrix(0.02184265,0,0,0.02239283,73.514986,9.1121594)" /><path
         style="display:inline;fill:#000000;stroke-width:45.3243"
         d="m -2892.1049,1128.2212 1.7882,-15.9502 -15.7375,-14.1975 -0.7153,-7.1864 -33.8,-10.692 c 0,0 -3.0402,-1.928 -2.3248,-4.0312 0.7153,-2.1035 5.1862,-13.3212 5.1862,-13.3212 l -11.8032,-30.1478 7.1535,-10.5166 -8.9418,-10.1661 -1.7884,-54.16078 7.1534,-5.60883 -3.0402,-16.82672 44.8879,-79.92654 22.3544,-21.20857 32.1905,-53.63496 15.7376,-38.21049 36.4825,4.73251 15.5587,-20.68277 47.928,-1.22678 h 477.1342 l 2.8614,-11.04245 5.7227,1.75267 -2.8613,14.0222 15.9164,4.90777 15.5587,-2.10311 53.6508,16.12554 -62.4138,29.79721 8.4053,1.57766 18.9566,-7.88748 c 0,0 -0.7156,9.64023 0.1786,9.64023 0.8941,0 61.5195,-21.20857 61.5195,-21.20857 l -16.0952,15.775 21.818,8.41333 41.3111,-7.01111 -1.6097,7.88748 11.982,-0.87633 3.7555,12.79525 -18.0624,2.629 -7.5112,-3.85623 -32.0116,9.28971 -6.6169,-2.10311 -18.0624,15.95027 -0.5366,11.39303 c 0,0 -29.8656,43.1183 -29.6867,44.34525 0.1785,1.22677 -5.9016,25.76577 -5.9016,25.76577 l 8.0476,1.75267 14.3069,-8.93918 11.8031,-14.54804 6.2593,-24.18829 4.2921,-11.7436 11.8031,-14.37273 19.672,-13.14583 21.6391,-14.0222 19.3143,11.91886 -1.7883,11.39303 -3.3979,10.34139 -19.1355,14.02221 -0.3571,5.2583 9.2995,-3.68077 13.4127,-7.71222 3.9345,3.50578 -7.69,28.74552 -30.7598,24.01302 4.8286,5.08308 9.2995,3.68077 10.3725,-0.52589 c 0,0 10.7301,-1.92811 11.6243,-2.10311 0.8941,-0.17499 66.1693,-31.02411 66.1693,-31.02411 l -1.2517,-6.48526 2.6824,-6.13473 18.4201,-1.22677 8.9418,3.50577 17.1682,-1.40221 c 0,0 12.6974,-6.31 14.3069,-7.71222 1.6097,-1.40222 3.7555,-11.91887 3.7555,-11.91887 l 16.8105,-12.09414 16.2741,-9.11444 69.2095,-0.34998 12.5185,-8.76386 c 0,0 3.3979,0.70133 4.2921,0.34999 0.8941,-0.34999 50.074,-50.6552 50.074,-50.6552 l 4.2921,5.78414 14.8434,-3.50577 3.9345,7.53695 -11.982,29.62189 4.8285,5.08308 -2.1458,10.86719 4.1131,-0.52589 -1.6097,13.3211 -94.0677,24.88943 z"
         id="path2"
         transform="matrix(0.02184265,0,0,0.02239283,73.514986,9.1121594)" /><path
         style="fill:#000000"
         d="m 27.496094,29.070312 0.160156,-0.140625 0.07813,0.02344 0.148437,-0.02344 -0.07031,-0.113281 0.183594,-0.21875 0.152343,-0.05859 0.246094,-0.125 0.160156,-0.375 0.347657,-0.375 -0.0078,-0.296875 0.08594,0.02734 0.06641,0.167969 0.269531,0.214844 0.125,-0.05078 0.0039,-0.144531 0.148438,0.01953 -0.175781,-0.574218 -0.402344,-0.140625 -0.898438,-0.117188 -0.125,-0.121094 0.117188,-0.472656 0.05469,-0.277344 -0.351562,0.0078 -0.06641,-0.417969 -0.652344,-0.148437 -0.960938,0.558593 -1.089843,-0.351562 -0.351563,0.05078 -0.371094,-0.109375 0.0625,-0.320312 -0.07813,-0.02734 -0.05078,0.261719 -11.519531,-0.0039 -0.113281,-0.05469 -0.324219,-0.5 -0.199219,-0.28125 -0.558593,-0.3125 0.144531,-1.566406 1.121094,-1.074219 -0.417969,-0.308594 0.246094,-0.953125 -0.05078,-0.609375 -1.226562,0.414063 0.128906,-0.730469 -0.753906,0.05859 5.382812,-4.570313 1.277126,0.392077 2.298097,-0.574525 3.071496,0.121534 1.856155,0.464039 0.110485,0.198874 -0.685009,0.287262 1.900349,-0.0221 0.254117,0.430893 0.574524,-0.53033 2.662699,0.121534 c 0,0 0.696058,-0.331456 0.795495,-0.320408 0.09944,0.01105 0.90598,0.220971 0.90598,0.220971 l 0.696059,-0.430893 -0.298311,-0.45299 0.928078,-0.795495 0.662912,-0.0442 -0.0221,1.37002 0.563476,-0.243068 0.298311,0.121534 -0.497185,0.662912 h 0.508233 l 1.281631,-1.06066 0.939126,0.09944 0.198874,0.23202 -0.342505,0.37565 -0.331456,0.110486 0.110485,0.430893 -1.66833,0.541378 -0.60767,0.01105 -1.215339,0.817592 -3.601825,1.635185 -0.983321,0.928077 0.04419,0.254117 0.452991,-0.0221 -0.320408,0.928077 0.475087,-0.176776 0.751301,0.176776 0.806544,0.662913 1.314776,0.243068 -0.574524,1.115903 0.198874,0.751301 0.243068,0.386699 0.707107,-0.585573 0.353553,-1.414214 1.568893,-0.740252 0.364602,-0.961223 -0.353553,-0.265165 0.287262,-0.30936 1.138,-1.635184 1.535748,-0.01105 1.149048,0.751301 -0.243068,0.519282 -0.09944,0.441942 0.45299,0.265165 0.629767,-0.176777 0.972272,-0.883884 0.464039,1.778816 -0.209922,0.441942 1.049611,0.82864 c 0,0 0.464039,0.552428 0.475088,0.60767 0.01105,0.05524 -0.198874,0.729204 -0.198874,0.729204 l -0.905981,0.342505 -1.082757,0.508233 -0.883883,0.176777 -1.97769,-0.03315 -2.49697,1.657282 -0.240127,0.196769 0.609375,-0.277344 0.886719,-0.628906 0.972656,-0.394532 0.824219,-0.01953 0.148438,0.289063 -0.679688,0.335937 -0.144531,0.175781 0.140625,0.558594 0.189207,0.305547 c 0,0 0.441941,0.171253 0.502708,0.182301 0.06077,0.01105 1.093806,-0.668437 1.093806,-0.668437 l 0.09391,0.09944 -0.132583,0.254117 0.237544,0.132582 -0.149155,0.149156 -0.596622,0.348029 -1.452883,0.419844 -0.712631,0.541379 -0.287262,-0.160204 0.149155,-0.403272 0.342505,-0.232019 0.845213,-0.226495 -0.309359,-0.143631 -1.242961,0.243068 -0.06669,-0.09531 c 0,0 -0.07031,-0.167969 -0.06641,-0.210938 0.0039,-0.04297 0.289062,-0.730468 0.289062,-0.730468 l -0.136718,-0.07813 -0.265625,0.07031 -0.07422,-0.101562 -1.050781,1.125 -0.40625,0.207031 -1.488282,-0.01953 -0.667968,0.410156 -0.09766,0.316406 -0.335937,0.1875 h -0.570313 l -0.296875,-0.03516 -0.125,0.269531 -1.496093,0.714844 -0.480469,0.08203 -0.296875,-0.128906 -0.07813,-0.160156 z"
         id="path3" /><path
         style="fill:#000000"
         d="m 12.109375,24.660156 -0.03125,0.425781 c 0,0 0.257813,0.136719 0.261719,0.195313 0.0039,0.05859 -0.05469,0.378906 -0.05469,0.378906 l -0.234375,0.02344 -0.355468,-0.175782 -0.648438,-1.042968 0.230469,-0.136719 0.285156,0.203125 z"
         id="path4" /><path
         style="fill:#000000"
         d="M 10.632813,23.589844 10.578125,23.410156 10.710938,23.046875 11.25,22.636719 10.6875,22.625 l -0.167969,0.175781 -0.09766,0.394531 0.06641,0.457032 z"
         id="path5" /><path
         style="fill:#000000"
         d="m 11.949219,22.503906 0.886719,-0.863281 -0.0078,-0.08594 -0.375,-0.265625 0.214844,-0.949218 -0.05469,-0.644532 -1.199218,0.414063 0.121093,-0.734375 -0.699218,0.06641 5.300781,-4.519531 -0.464844,-0.1875 -1.992187,-0.191406 -0.769532,-0.01953 -0.02734,-0.183594 -0.972657,-0.195313 -2.566406,0.519532 -2.9726563,0.878906 0.2890625,0.21875 -0.09375,0.351562 0.5429688,0.03516 -0.203125,0.390625 -1.046875,0.04687 0.3320312,-0.242187 -0.9023437,0.125 -1.28125,0.332031 0.089844,0.289063 -0.1523437,0.21875 0.9492187,0.03906 1.1367188,-0.175781 -0.00391,0.09766 -0.6757812,0.5 -1.3554687,0.308594 -1.1484375,0.3125 -0.8359375,0.410156 -0.039063,0.421875 -0.3125,0.128906 0.035156,0.359375 0.6875,-0.105468 0.085937,0.08203 -0.7226563,0.605469 1.0625001,0.105468 0.9609375,-0.214843 -0.484375,0.238281 -0.421875,0.339844 -2.07031255,0.839843 -0.73046875,0.164063 -0.06640625,0.148437 0.24609375,0.04297 c 0,0 0.671875,-0.167969 0.69921875,-0.167969 0.0273438,0 0.82812495,-0.226562 0.82812495,-0.226562 l 1.0390626,-0.410156 2.3906249,-0.960938 0.023437,-0.09375 -0.1875,-0.07813 1.546875,-0.640625 1.1484375,-0.429687 0.171875,0.160156 -0.3828125,0.0078 -1.1601562,0.574219 -0.3789063,0.300781 0.2734375,-0.01172 1.5273438,-0.359375 0.625,-0.515625 0.515625,0.15625 0.5,0.367187 0.8867191,0.0039 0.632812,0.355469 0.320313,0.523438 -0.253906,1.015625 0.273437,0.765625 0.300781,-0.175782 0.320313,0.175782 z"
         id="path6" /><path
         style="fill:#000000"
         d="m 37.089844,24.894531 c 0.02734,0.01172 0.238281,0.117188 0.238281,0.117188 l 0.140625,0.160156 0.546875,0.136719 0.08594,-0.05859 -0.355468,-0.269531 -0.5625,-0.140625 z"
         id="path7" /><path
         style="fill:#000000"
         d="m 38.824219,26.089844 c 0.03906,0.0078 1.019531,0.04297 1.019531,0.04297 l 0.339844,0.0078 0.160156,0.04687 0.289062,-0.160156 0.0625,0.07813 -0.589843,0.320312 0.05469,0.05859 0.195313,-0.02734 0.472656,-0.300781 0.1875,-0.199219 0.05469,0.175781 -0.261718,0.375 0.06641,0.01172 0.242187,-0.148437 -0.07031,0.222656 0.214844,0.0078 0.203125,-0.253906 0.121093,-0.3125 -0.222656,0.125 0.242188,-0.339844 -0.179688,0.02734 -0.226562,0.296875 -0.07422,-0.167969 0.492187,-0.386718 -0.179687,-0.02734 -0.253906,0.07813 0.05078,-0.214844 0.328125,-0.242187 -0.210938,-0.113282 -0.507812,0.15625 -0.25,-0.191406 0.246094,-0.210937 -0.269532,-0.05469 L 40.246094,25 l -0.03516,-0.08203 0.9375,-0.9375 -0.164062,-0.03516 -0.402344,0.167969 -0.375,0.335938 -0.574219,0.660156 L 39.25,25.5625 39.136719,25.75 38.832031,25.929687 Z"
         id="path8" /><path
         style="fill:#000000"
         d="m 35.953125,17.453125 1.164062,-0.0625 0.382813,-0.04687 0.320312,0.632812 0.71875,0.453125 1.023438,0.242188 -0.02344,-0.390625 -0.53125,-0.414063 0.25,-0.05469 0.90625,0.585937 0.5,-0.546875 -0.65625,-1.109375 0.453125,-0.390625 0.585938,0.726563 0.320312,0.05469 1.242188,-0.828125 -1.875,-0.875 0.671875,-0.328125 -0.0078,-0.515625 -1.867187,-1.007812 -0.125,-0.390625 -2.992188,-0.148438 -1.671875,0.570313 -0.476562,0.75 0.390625,0.296875 2.773437,0.15625 0.304688,-0.242188 1.015625,0.976563 0.140625,0.445312 -0.960938,0.492188 -0.15625,0.398437 -1.351562,0.07031 -0.5,0.320312 z"
         id="path9" /><path
         style="fill:#000000"
         d="m 32.292969,17.832031 0.570312,-0.08594 -0.152344,0.269531 0.386719,-0.04297 0.792969,-0.429687 0.152344,0.230468 0.449218,0.09766 0.347657,-0.105469 -0.05078,-0.195313 -0.4375,0.03516 0.175782,-0.261719 -0.675782,-0.445313 -0.171875,-0.214843 -0.832031,0.722656 -0.582031,0.371094 z"
         id="path10" /><path
         style="fill:#000000"
         d="m 33.03125,18.519531 0.425781,-0.07422 0.476563,-0.269531 -0.105469,-0.05859 -0.46875,0.07031 -0.3125,0.210937 z"
         id="path11" /><path
         style="fill:#000000"
         d="m 34.203125,18.730469 0.101562,0.07813 0.378907,-0.28125 -0.01563,-0.117188 -0.101563,-0.01953 -0.308594,0.199219 z"
         id="path12" /><path
         style="fill:#000000"
         d="m 31.714844,42.371094 0.582031,0.0039 0.160156,-0.152344 -0.01563,-0.105469 -0.488281,-0.0625 -0.234375,0.01563 -0.03516,0.105469 0.05078,0.05469 z"
         id="path13" /></g></g></svg>
